PathFileType	4	(X/Y/Z)	Walk10.trc
DataRate	CameraRate	NumFrames	NumMarkers	Units	OrigDataRate	OrigDataStartFrame	OrigNumFrames
200.000000	200.000000	7	59	mm	200.000000	470	589
Frame#	Times		CLAV		RASI		RACR1		RUA1		RFA1		RWRU		LACR1		LFA1		LCAR		RTH3		RTH2		LTH4		LLFC		LTB1		LTB3		STRN		LTB4		LASI		RElbow		RTH1		RLFC		LTH2		LTH3		LToe		LTH1		LWRR		RBack		C7		RCAR		LTB2		LMT1		RTH4		LFHD		RWRR		LMMAL		T10		LMT5		RFHD		LLMAL		RBHD		RPSI		LPSI		LUA1		RTB2		LBHD		RTB4		LElbow		RTB1		RMT1		RElbowM		RTB3		RToe		RCAL		LElbowM		LCAL		LWRU		RMMAL		RLMAL		RMT5
			X1	Y1	Z1	X2	Y2	Z2	X3	Y3	Z3	X4	Y4	Z4	X5	Y5	Z5	X6	Y6	Z6	X7	Y7	Z7	X8	Y8	Z8	X9	Y9	Z9	X10	Y10	Z10	X11	Y11	Z11	X12	Y12	Z12	X13	Y13	Z13	X14	Y14	Z14	X15	Y15	Z15	X16	Y16	Z16	X17	Y17	Z17	X18	Y18	Z18	X19	Y19	Z19	X20	Y20	Z20	X21	Y21	Z21	X22	Y22	Z22	X23	Y23	Z23	X24	Y24	Z24	X25	Y25	Z25	X26	Y26	Z26	X27	Y27	Z27	X28	Y28	Z28	X29	Y29	Z29	X30	Y30	Z30	X31	Y31	Z31	X32	Y32	Z32	X33	Y33	Z33	X34	Y34	Z34	X35	Y35	Z35	X36	Y36	Z36	X37	Y37	Z37	X38	Y38	Z38	X39	Y39	Z39	X40	Y40	Z40	X41	Y41	Z41	X42	Y42	Z42	X43	Y43	Z43	X44	Y44	Z44	X45	Y45	Z45	X46	Y46	Z46	X47	Y47	Z47	X48	Y48	Z48	X49	Y49	Z49	X50	Y50	Z50	X51	Y51	Z51	X52	Y52	Z52	X53	Y53	Z53	X54	Y54	Z54	X55	Y55	Z55	X56	Y56	Z56	X57	Y57	Z57	X58	Y58	Z58	X59	Y59	Z59

470	2.35	465.1	1343.1	1.061	498.27	945.63	149.5	421.39	1355.5	176.58	440.05	1147.3	243.67	560.21	934.36	250.2	583.72	823.66	252.31	392.61	1353.9	-164.83	344.06	909.75	-246.95	336.89	747.84	-259.22	363.84	561.37	143.63	441.04	654.98	134.81	457.82	640.96	-151.96	515.65	457.81	-119.81	585.12	376.48	-49.572	626.28	193.28	-54.355	548.25	1120.9	3.9035	607.71	283.81	-56.057	492.99	939.88	-124.74	447.05	1039.6	270.34	387.27	744.13	187.76	337.87	456.76	127.81	523.14	665.18	-117.8	486.99	557.34	-135.97	802.15	97.148	-104.17	428.05	733.03	-162.78	352.25	788.66	-216.08	301.66	1312.3	111.88	338.12	1417.9	11.287	643.72	811.33	239.24	571.92	278.88	-118.78	771.33	88.276	-75.713	374.85	652.48	163.3	504.31	1584.7	-25.493	618.46	856.05	195.83	639.5	91.929	-19.827	309.24	1132.8	14.718	733.06	55.799	-133.31	509.46	1587.7	47.412	618.92	69.652	-96.63	338.37	1547	81.507	284.44	979.72	76.912	282.08	966.87	-37.122	343.99	1150.7	-210.46	276.65	249.91	112.31	335.17	1552.9	-47.265	286.71	247.43	41.446	309.67	1035.5	-221.45	326.92	331.11	47.977	323.19	37.705	40.216	422.3	1010.8	190.93	246.46	164.5	34.511	365.55	26.839	79.282	121.59	48.469	28.948	302.3	1020.4	-151.88	590.42	25.049	-36.242	295.29	797.53	-260.29	194.12	87.814	0.79186	171.07	74.998	78.589	272.02	21.265	121.97
471	2.355	470.75	1342.1	0.63473	503.24	944.86	149.8	426.97	1354.6	176.13	445.87	1146.5	243.38	566.66	933.99	249.85	590.54	823.4	251.98	398.3	1352.8	-165.28	348.13	908.78	-247.23	340.27	746.93	-259.54	367.76	560.71	143.61	445.22	653.99	134.49	463.1	639.69	-152.05	521.37	456.83	-119.76	591.81	376.39	-49.263	635.96	193.75	-54.293	553.92	1119.9	3.6874	615.97	284.03	-55.872	498.83	938.54	-124.58	453.16	1038.9	270.2	391.97	743.4	187.67	341.13	456.23	127.73	528.24	663.83	-117.47	492.07	556.04	-135.87	813.92	100	-103.2	433.5	731.82	-163.03	355.89	787.64	-216.39	307.22	1311.5	111.43	343.75	1416.9	10.783	650.57	811.29	238.81	580.51	278.65	-118.77	782.95	90.642	-75.086	379.18	651.84	163.32	509.74	1583.9	-26.035	625.06	855.88	195.42	650.7	92.494	-19.818	314.81	1131.9	14.189	745.49	57.557	-132.87	514.84	1586.9	46.868	630.79	70.007	-96.768	343.8	1545.9	80.912	289.85	978.79	76.198	287.8	965.83	-37.814	349.06	1149.7	-210.77	278.24	249.79	112.32	340.64	1551.8	-47.908	288.36	247.17	41.465	314.28	1034.7	-221.67	329.28	330.52	48.022	323.23	37.64	40.139	428.53	1009.8	190.76	247.44	164.58	34.553	365.64	26.794	79.297	121.72	49.423	29.034	306.96	1019.6	-152.12	602.64	24.807	-36.586	298.87	796.78	-260.5	194.52	88.292	0.87341	171.36	75.639	78.633	272.03	21.289	121.92
472	2.36	476.42	1341.1	0.17449	508.22	944.09	150.07	432.57	1353.7	175.64	451.69	1145.7	243.05	573.03	933.58	249.51	597.26	823.09	251.65	404.01	1351.7	-165.76	352.26	907.82	-247.52	343.75	746.02	-259.86	371.74	560.06	143.59	449.46	653.02	134.19	468.58	638.54	-152.14	527.25	455.92	-119.71	598.47	376.25	-48.957	645.18	194.13	-54.186	559.61	1118.8	3.4412	623.96	284.18	-55.667	504.72	937.22	-124.42	459.23	1038.2	270.04	396.72	742.67	187.55	344.45	455.7	127.65	533.51	662.65	-117.12	497.4	554.87	-135.76	824.94	102.47	-102.25	439.08	730.69	-163.29	359.62	786.63	-216.71	312.81	1310.6	110.95	349.39	1416	10.246	657.31	811.19	238.41	588.82	278.43	-118.73	793.81	92.702	-74.452	383.55	651.2	163.32	515.18	1583	-26.601	631.56	855.65	195.02	661.21	92.978	-19.746	320.41	1130.9	13.632	757.09	59.049	-132.41	520.24	1586	46.3	641.89	70.317	-96.836	349.24	1544.9	80.295	295.3	977.86	75.465	293.54	964.81	-38.525	354.17	1148.7	-211.11	279.86	249.7	112.32	346.13	1550.7	-48.571	290.05	246.93	41.488	318.95	1033.8	-221.93	331.68	329.94	48.06	323.28	37.575	40.062	434.69	1008.9	190.57	248.43	164.67	34.606	365.71	26.747	79.302	121.86	50.438	29.137	311.67	1018.8	-152.37	614.03	24.609	-36.832	302.52	796.01	-260.72	194.94	88.817	0.96666	171.65	76.33	78.693	272.03	21.311	121.88
473	2.365	482.12	1340.1	-0.32087	513.24	943.34	150.32	438.19	1352.7	175.12	457.51	1145	242.7	579.31	933.13	249.17	603.86	822.74	251.34	409.75	1350.6	-166.28	356.45	906.85	-247.83	347.32	745.13	-260.19	375.79	559.41	143.55	453.76	652.04	133.9	474.28	637.52	-152.21	533.3	455.11	-119.66	605.09	376.04	-48.657	653.91	194.4	-54.029	565.31	1117.7	3.1634	631.68	284.24	-55.44	510.66	935.92	-124.25	465.25	1037.5	269.86	401.53	741.94	187.41	347.83	455.18	127.55	538.96	661.63	-116.74	503.01	553.85	-135.63	835.18	104.47	-101.33	444.82	729.66	-163.57	363.43	785.64	-217.03	318.42	1309.7	110.42	355.06	1415.1	9.675	663.93	811.02	238.01	596.85	278.17	-118.66	803.9	94.399	-73.813	387.98	650.55	163.29	520.64	1582.1	-27.19	637.96	855.36	194.63	671.01	93.35	-19.608	326.06	1130	13.049	767.83	60.224	-131.9	525.67	1585.2	45.71	652.19	70.548	-96.827	354.7	1543.9	79.657	300.81	976.94	74.717	299.32	963.81	-39.252	359.32	1147.7	-211.49	281.51	249.63	112.34	351.64	1549.6	-49.254	291.76	246.72	41.515	323.66	1033	-222.21	334.11	329.38	48.089	323.33	37.509	39.986	440.78	1008	190.36	249.46	164.81	34.672	365.79	26.7	79.298	122.01	51.517	29.258	316.42	1018	-152.65	624.56	24.43	-36.969	306.26	795.25	-260.94	195.38	89.391	1.0726	171.96	77.074	78.768	272.04	21.331	121.84
474	2.37	487.84	1339.1	-0.85231	518.3	942.59	150.54	443.84	1351.8	174.57	463.32	1144.2	242.31	585.51	932.64	248.82	610.34	822.35	251.03	415.52	1349.5	-166.84	360.72	905.9	-248.15	350.98	744.24	-260.53	379.9	558.76	143.49	458.13	651.08	133.61	480.21	636.62	-152.28	539.51	454.37	-119.6	611.69	375.78	-48.365	662.16	194.53	-53.82	571.03	1116.7	2.8527	639.13	284.19	-55.191	516.64	934.66	-124.09	471.22	1036.8	269.66	406.38	741.22	187.26	351.27	454.67	127.44	544.61	660.79	-116.34	508.9	552.98	-135.49	844.65	105.97	-100.45	450.73	728.74	-163.85	367.32	784.65	-217.37	324.06	1308.8	109.85	360.74	1414.2	9.0708	670.42	810.79	237.63	604.6	277.89	-118.55	813.22	95.681	-73.17	392.46	649.9	163.23	526.12	1581.3	-27.801	644.27	855.01	194.25	680.08	93.58	-19.403	331.75	1129	12.445	777.69	61.042	-131.37	531.11	1584.4	45.098	661.69	70.668	-96.739	360.19	1542.9	78.998	306.35	976.03	73.96	305.13	962.84	-39.989	364.53	1146.8	-211.9	283.19	249.61	112.35	357.17	1548.5	-49.954	293.51	246.54	41.548	328.42	1032.1	-222.52	336.58	328.83	48.109	323.38	37.444	39.912	446.8	1007	190.14	250.5	164.97	34.751	365.87	26.651	79.284	122.18	52.667	29.397	321.22	1017.2	-152.96	634.22	24.248	-36.995	310.08	794.49	-261.17	195.84	90.019	1.1932	172.28	77.875	78.861	272.04	21.347	121.79
475	2.375	493.59	1338.2	-1.4205	523.4	941.85	150.72	449.51	1350.9	173.98	469.13	1143.4	241.89	591.62	932.12	248.48	616.71	821.91	250.73	421.31	1348.4	-167.43	365.05	904.95	-248.48	354.74	743.37	-260.87	384.07	558.12	143.42	462.58	650.13	133.32	486.36	635.88	-152.33	545.88	453.72	-119.53	618.25	375.45	-48.081	669.94	194.5	-53.56	576.77	1115.7	2.5082	646.32	284.03	-54.919	522.67	933.43	-123.94	477.14	1036.1	269.44	411.3	740.5	187.08	354.76	454.17	127.32	550.47	660.13	-115.91	515.06	552.27	-135.35	853.34	106.9	-99.6	456.82	727.95	-164.12	371.29	783.68	-217.71	329.73	1308	109.24	366.45	1413.2	8.433	676.8	810.51	237.27	612.06	277.55	-118.4	821.78	96.507	-72.52	397	649.25	163.15	531.61	1580.4	-28.434	650.48	854.61	193.87	688.44	93.647	-19.132	337.48	1128.1	11.819	786.69	61.471	-130.8	536.56	1583.6	44.464	670.38	70.656	-96.572	365.69	1541.9	78.319	311.95	975.13	73.198	310.96	961.9	-40.731	369.77	1145.8	-212.35	284.9	249.62	112.38	362.71	1547.5	-50.673	295.29	246.38	41.589	333.24	1031.3	-222.85	339.09	328.29	48.122	323.42	37.38	39.842	452.75	1006.2	189.91	251.58	165.18	34.847	365.94	26.601	79.263	122.35	53.894	29.558	326.06	1016.4	-153.29	642.98	24.049	-36.911	313.99	793.73	-261.4	196.31	90.704	1.3312	172.62	78.738	78.972	272.04	21.36	121.74
476	2.38	499.36	1337.2	-2.0256	528.54	941.13	150.85	455.2	1350	173.35	474.93	1142.7	241.43	597.64	931.57	248.14	622.95	821.44	250.43	427.12	1347.4	-168.06	369.46	904.01	-248.82	358.59	742.51	-261.21	388.31	557.48	143.34	467.09	649.18	133.03	492.74	635.27	-152.37	552.4	453.15	-119.46	624.78	375.04	-47.806	677.25	194.32	-53.248	582.53	1114.7	2.1295	653.25	283.74	-54.625	528.75	932.26	-123.83	483	1035.4	269.19	416.27	739.78	186.88	358.31	453.68	127.19	556.53	659.64	-115.47	521.49	551.72	-135.22	861.29	107.24	-98.779	463.09	727.28	-164.39	375.35	782.73	-218.05	335.43	1307.1	108.6	372.17	1412.3	7.7617	683.05	810.17	236.93	619.23	277.15	-118.21	829.58	96.843	-71.856	401.61	648.59	163.05	537.12	1579.6	-29.088	656.58	854.17	193.52	696.09	93.533	-18.798	343.27	1127.2	11.174	794.82	61.488	-130.21	542.04	1582.9	43.811	678.28	70.498	-96.33	371.21	1540.9	77.621	317.59	974.25	72.439	316.83	961	-41.474	375.07	1144.9	-212.83	286.66	249.68	112.41	368.28	1546.4	-51.408	297.12	246.26	41.641	338.1	1030.5	-223.21	341.65	327.78	48.129	323.48	37.317	39.779	458.62	1005.3	189.66	252.69	165.43	34.963	366	26.55	79.235	122.54	55.206	29.743	330.96	1015.6	-153.64	650.86	23.825	-36.728	317.99	792.98	-261.63	196.82	91.45	1.49	172.99	79.668	79.105	272.05	21.368	121.7
